# xmcd
#
# Track frame offsets:
#	150
#	14969
#	34825
#	52035
#	65123
#	84620
#	98300
#	116178
#	134481
#	154696
#	173906
#	191597
#	203175
#	234409
#	248953
#	267120
#	283647
#	300253
#	323008
#	340064
#
# Disc length: 4675
#
# Revision: 1
# Processed by: cddbd v1.5.1PL0 Copyright (c) Steve Scherf et al.
# Submitted via: CDex 1.51
# Normalized: r0:DSETVAR1,TDELIM( - )
#
DISCID=1f124114
DTITLE=Various Artist - Ultimate Salsa
DYEAR=2004
DGENRE=Salsa
TTITLE0=Tito Puente - Oye como va
TTITLE1=Pete Conde Rodriguez - I like it that
TTITLE2=Ray Barretto - The soul Drummer
TTITLE3=Celia Cruz - Cuando sali de cuba
TTITLE4=Fania All Stars - Dime que te pasa
TTITLE5=La lupe - Guantanamera
TTITLE6=Mongo santamaria - La bamba
TTITLE7=Johnny Pacheco - La esencia del guaguanco
TTITLE8=Ruben Blades - Juan Pachanga
TTITLE9=Willie Colon - Usted abuso
TTITLE10=Sandy Aruba - Ne me quitte pas
TTITLE11=Johnny Colon - New York mambo
TTITLE12=Sonora del sol - Chan Chan
TTITLE13=Tito puente and La lupe - Pata Pata
TTITLE14=Joe Cuba - Bang Bang
TTITLE15=Ismael Rivera - Arrecotin Arrecotan
TTITLE16=Edith Lefel - Non je ne regrette rien
TTITLE17=Eddith Palmieri - Yo no soy guapo
TTITLE18=Cheo Feliciano - El raton
TTITLE19=Celia Cruz and Ray Barretto - Cachunga
EXTD=YEAR: 2004
EXTT0=
EXTT1=
EXTT2=
EXTT3=
EXTT4=
EXTT5=
EXTT6=
EXTT7=
EXTT8=
EXTT9=
EXTT10=
EXTT11=
EXTT12=
EXTT13=
EXTT14=
EXTT15=
EXTT16=
EXTT17=
EXTT18=
EXTT19=
PLAYORDER=
